{"title":"Vikings Season 1 WEB-DL XviD - DiGrX","uid":9273687,"size":4140929090,"categoryP":"video","categoryS":"tv_shows","magnet":"?xt=urn:btih:ff95d7050cadd2cac1729ecaf25c18cb372ff1cd&amp;dn=Vikings+Season+1+WEB-DL+XviD+-+DiGrX&amp;tr=udp%3A%2F%2Ftracker.openbittorrent.com%3A80&amp;tr=udp%3A%2F%2Fopen.demonii.com%3A1337&amp;tr=udp%3A%2F%2Ftracker.coppersurfer.tk%3A6969&amp;tr=udp%3A%2F%2Fexodus.desync.com%3A6969","seeders":4,"leechers":8,"uploader":"dimigeor","files":10,"time":1385823638,"description":"A DiGrX release\n\n\nVikings Season 1 WEB-DL XviD - DiGrX\n\nAll episodes in XviD from WEB-DL\n\nCodec ID, Format: XVID, MPEG-4\nAspect ratio, Dimension: 16:9, 720x400\nAudio: MP3, 2 Channels\n\n\n-----------------------------------------------------------------------------------\n\n\nEpisode 1 example:\n\nGeneral\nComplete name                            : Vikings 1x01 - Rites of Passage WEB-DL.avi\nFormat                                   : AVI\nFormat/Info                              : Audio Video Interleave\nFile size                                : 423 MiB\nDuration                                 : 44mn 11s\nOverall bit rate mode                    : Variable\nOverall bit rate                         : 1 338 Kbps\nWriting application                      : MEncoder r33883\nWriting library                          : MPlayer\n\nVideo\nID                                       : 0\nFormat                                   : MPEG-4 Visual\nFormat profile                           : Simple@L3\nFormat settings, BVOP                    : No\nFormat settings, QPel                    : No\nFormat settings, GMC                     : No warppoints\nFormat settings, Matrix                  : Default (H.263)\nCodec ID                                 : XVID\nCodec ID/Hint                            : XviD\nDuration                                 : 44mn 11s\nBit rate                                 : 1 202 Kbps\nWidth                                    : 720 pixels\nHeight                                   : 400 pixels\nDisplay aspect ratio                     : 16:9\nFrame rate                               : 23.976 fps\nColor space                              : YUV\nChroma subsampling                       : 4:2:0\nBit depth                                : 8 bits\nScan type                                : Progressive\nCompression mode                         : Lossy\nBits/(Pixel*Frame)                       : 0.174\nStream size                              : 380 MiB (90%)\nWriting library                          : XviD 63\n\nAudio\nID                                       : 1\nFormat                                   : MPEG Audio\nFormat version                           : Version 1\nFormat profile                           : Layer 3\nMode                                     : Joint stereo\nMode extension                           : MS Stereo\nCodec ID                                 : 55\nCodec ID/Hint                            : MP3\nDuration                                 : 44mn 10s\nBit rate mode                            : Variable\nBit rate                                 : 123 Kbps\nChannel(s)                               : 2 channels\nSampling rate                            : 48.0 KHz\nCompression mode                         : Lossy\nStream size                              : 38.9 MiB (9%)\nAlignment                                : Aligned on interleaves\nInterleave, duration                     : 24 ms (0.58 video frame)\nInterleave, preload duration             : 130 ms\nWriting library                          : LAME3.98.4\n\n\n","torrent":{"xt":"urn:btih:ff95d7050cadd2cac1729ecaf25c18cb372ff1cd","amp;dn":"Vikings+Season+1+WEB-DL+XviD+-+DiGrX","amp;tr":["udp%3A%2F%2Ftracker.openbittorrent.com%3A80","udp%3A%2F%2Fopen.demonii.com%3A1337","udp%3A%2F%2Ftracker.coppersurfer.tk%3A6969","udp%3A%2F%2Fexodus.desync.com%3A6969"],"infoHash":"ff95d7050cadd2cac1729ecaf25c18cb372ff1cd","infoHashBuffer":{"type":"Buffer","data":[255,149,215,5,12,173,210,202,193,114,158,202,242,92,24,203,55,47,241,205]},"announce":[],"urlList":[]}}